# xmcd
# 
# Track frame offsets:
#     150
#     15287
#     35503
#     53749
#     73274
#     85760
#     104618
#     125357
#     137981
#     156608
#     179690
#     196890
#     220098
#     240652
#     258598
#     274951
#     296028
#     312270
#     336336
# 
# Disc length: 4708
# 
# Revision: 1
# Processed by: cddbd v1.5.2PL0 Copyright (c) Steve Scherf et al.
# Submitted via: fre:ac v1.0.31
# 
DISCID=2b126213
DTITLE=Various Artist - Angry Birds Blues 2017
DYEAR=2017
DGENRE=Blues
TTITLE0=Kim Wilson - Bonus Boogie
TTITLE1=Eric Sardina - Eric Sardinas-Killin Time
TTITLE2=Kai Strauss - I Ain't Buying It
TTITLE3=Blue DeVilles - The Swinger
TTITLE4=Lil' Ed And The Blues Imperials - If You Were Mine
TTITLE5=BIRDLEGG - Eye Sight To The Blind
TTITLE6=Brad Paisley - Brad Paisley - Drive of Shame (Audio) ft. Mick Jagger
TTITLE7=Paul Lamp - Preaching The Blues
TTITLE8=Monster Mike Welch and Mike Ledbetter - Can't Sit Down
TTITLE9=Kai Strauss feat. Big Daddy Wilson - I Can't Wait
TTITLE10=Lil' Ed And The Blues Imperials - You Burnt Me
TTITLE11=Gamblin' Man Blue - Gamblin' Man Blues- Eric Sardinas
TTITLE12=Blue DeVilles - Next Stop Bluesville
TTITLE13=Kai Strauss - Gotta Let You Go
TTITLE14=Monster Mike Welch and Mike Ledbetter - Goodbye Baby
TTITLE15=My Kind Of Woman - My Kind Of Woman - Eric Sardinas
TTITLE16=Paul Lamb and the King Snakes - Jumpin' Little Judy
TTITLE17=BIRDLEGG - I Want To Know
TTITLE18=Kim Wilson - Searched All Over
EXTD=
EXTT0=
EXTT1=
EXTT2=
EXTT3=
EXTT4=
EXTT5=
EXTT6=
EXTT7=
EXTT8=
EXTT9=
EXTT10=
EXTT11=
EXTT12=
EXTT13=
EXTT14=
EXTT15=
EXTT16=
EXTT17=
EXTT18=
PLAYORDER=
